<?xml version="1.0" encoding="UTF-8" standalone="no"?>
<!-- Generator: Adobe Illustrator 16.0.4, SVG Export Plug-In . SVG Version: 6.00 Build 0)  -->

<svg
   xmlns:dc="http://purl.org/dc/elements/1.1/"
   xmlns:cc="http://creativecommons.org/ns#"
   xmlns:rdf="http://www.w3.org/1999/02/22-rdf-syntax-ns#"
   xmlns:svg="http://www.w3.org/2000/svg"
   xmlns="http://www.w3.org/2000/svg"
   xmlns:xlink="http://www.w3.org/1999/xlink"
   xmlns:sodipodi="http://sodipodi.sourceforge.net/DTD/sodipodi-0.dtd"
   xmlns:inkscape="http://www.inkscape.org/namespaces/inkscape"
   version="1.1"
   id="Ebene_1"
   x="0px"
   y="0px"
   width="198.425px"
   height="198.425px"
   viewBox="0 0 198.425 198.425"
   enable-background="new 0 0 198.425 198.425"
   xml:space="preserve"
   sodipodi:docname="scwb.svg"
   inkscape:version="0.92.4 (unknown)"
   inkscape:export-filename="/srv/shiny-server/hexagons/scwb.png"
   inkscape:export-xdpi="139.99904"
   inkscape:export-ydpi="139.99904"><metadata
   id="metadata135"><rdf:RDF><cc:Work
       rdf:about=""><dc:format>image/svg+xml</dc:format><dc:type
         rdf:resource="http://purl.org/dc/dcmitype/StillImage" /><dc:title /></cc:Work></rdf:RDF></metadata><defs
   id="defs133">
	
	
	

		
		
		
		
		
		
		
		
		
		
		
		
		
		
		
		
		
		
		
		
		
		
		
		
		
		
		
		
		
			
		
			
		
			
		
			
		
			
		
		
			
		
			
		
			
		
			
		
			
		
		
		
		
		
		
		
		
		
		
		
		
		
		
		
		
		
	
		<defs
   id="defs3">
			<polygon
   id="SVGID_1_"
   points="36.713,135.213 36.713,63.212 99.213,27.212 161.713,63.212 161.713,135.213 99.213,171.213 " />
		</defs>
		<clipPath
   id="SVGID_2_">
			<use
   xlink:href="#SVGID_1_"
   overflow="visible"
   id="use5"
   style="overflow:visible"
   x="0"
   y="0"
   width="100%"
   height="100%" />
		</clipPath>
		
	</defs><sodipodi:namedview
   pagecolor="#ffffff"
   bordercolor="#666666"
   borderopacity="1"
   objecttolerance="10"
   gridtolerance="10"
   guidetolerance="10"
   inkscape:pageopacity="0"
   inkscape:pageshadow="2"
   inkscape:window-width="1625"
   inkscape:window-height="995"
   id="namedview131"
   showgrid="false"
   showguides="true"
   inkscape:zoom="3.1448823"
   inkscape:cx="140.33923"
   inkscape:cy="112.37637"
   inkscape:window-x="55"
   inkscape:window-y="27"
   inkscape:window-maximized="1"
   inkscape:current-layer="Ebene_1" />

<polygon
   clip-path="url(#SVGID_2_)"
   points="33.878,136.852 33.878,61.574 99.212,23.94 164.548,61.574 164.548,136.852 99.212,174.484 "
   id="polygon8"
   style="fill:#cfc9a5;fill-opacity:1"
   inkscape:export-filename="/srv/shiny-server/hexagons/ccle.png"
   inkscape:export-xdpi="139.99904"
   inkscape:export-ydpi="139.99904" /><polygon
   style="fill:none;stroke:#4a2b13;stroke-width:2;stroke-miterlimit:10;stroke-opacity:1"
   id="polygon12"
   points="157.713,65.378 157.713,133.045 99.212,166.879 40.712,133.045 40.712,65.378 99.212,31.545 "
   stroke-miterlimit="10"
   transform="translate(5e-4)"
   inkscape:export-filename="/srv/shiny-server/hexagons/ccle.png"
   inkscape:export-xdpi="139.99904"
   inkscape:export-ydpi="139.99904" /><rect
   x="76.455559"
   y="133.0134"
   stroke-miterlimit="10"
   width="45.514881"
   height="16.949533"
   id="rect92"
   style="fill:none;stroke:#4a2b13;stroke-width:0.99999994;stroke-miterlimit:10;stroke-opacity:1"
   inkscape:export-filename="/srv/shiny-server/hexagons/ccle.png"
   inkscape:export-xdpi="139.99904"
   inkscape:export-ydpi="139.99904" /><text
   xml:space="preserve"
   style="font-style:normal;font-variant:normal;font-weight:normal;font-stretch:normal;font-size:16px;line-height:1.25;font-family:Arial;-inkscape-font-specification:Arial;letter-spacing:0px;word-spacing:0px;fill:#4a2b13;fill-opacity:1;stroke:none;"
   x="78.317879"
   y="147.40016"
   id="text264"
   inkscape:export-filename="/srv/shiny-server/hexagons/ccle.png"
   inkscape:export-xdpi="139.99904"
   inkscape:export-ydpi="139.99904"><tspan
     sodipodi:role="line"
     id="tspan262"
     x="78.317879"
     y="147.40016"
     style="font-style:normal;font-variant:normal;font-weight:normal;font-stretch:normal;font-size:16px;line-height:1.25;font-family:'URW Gothic L';-inkscape-font-specification:'URW Gothic L, Normal';font-variant-ligatures:normal;font-variant-caps:normal;font-variant-numeric:normal;font-feature-settings:normal;text-align:start;writing-mode:lr-tb;text-anchor:start;fill:#4a2b13;">scWB</tspan></text>





<path
   style="fill:#83642d;fill-opacity:1;stroke:#000000;stroke-width:0.3392278px;stroke-linecap:butt;stroke-linejoin:miter;stroke-opacity:1"
   d="m 85.952403,49.48908 -1.063262,4.650166 -4.223115,-0.34621 z"
   id="path961"
   inkscape:connector-curvature="0"
   sodipodi:nodetypes="cccc" /><path
   style="fill:#91722d;fill-opacity:1;stroke:#000000;stroke-width:0.3392278px;stroke-linecap:butt;stroke-linejoin:miter;stroke-opacity:1"
   d="m 84.720372,54.428617 -2.835765,4.134587 -1.220114,-4.798218 z"
   id="path963"
   inkscape:connector-curvature="0"
   sodipodi:nodetypes="cccc" /><path
   style="fill:#7e733b;fill-opacity:1;stroke:#000000;stroke-width:0.3392278px;stroke-linecap:butt;stroke-linejoin:miter;stroke-opacity:1"
   d="m 80.664493,53.764986 -1.168942,3.420234 2.251296,1.255529 z"
   id="path965"
   inkscape:connector-curvature="0" /><path
   style="fill:#816739;fill-opacity:1;stroke:#000000;stroke-width:0.3392278px;stroke-linecap:butt;stroke-linejoin:miter;stroke-opacity:1"
   d="m 75.479912,58.186695 c 0,0 2.45705,2.072407 2.630226,2.029115 0.173179,-0.0433 2.554355,-6.450824 2.554355,-6.450824 z"
   id="path967"
   inkscape:connector-curvature="0" /><path
   style="fill:#321914;fill-opacity:1;stroke:#000000;stroke-width:0.3392278px;stroke-linecap:butt;stroke-linejoin:miter;stroke-opacity:1"
   d="m 78.110138,60.172514 c 0.216472,0.0433 3.636709,-1.731765 3.636709,-1.731765 L 79.495551,57.18522 Z"
   id="path969"
   inkscape:connector-curvature="0" /><path
   style="fill:none;stroke:#000000;stroke-width:0.3392278px;stroke-linecap:butt;stroke-linejoin:miter;stroke-opacity:1"
   d="m 77.244256,59.826162 c -0.173176,0.173176 -2.684235,3.636706 -2.684235,3.636706 l 0.0433,6.537411 3.506822,-9.827765 z"
   id="path971"
   inkscape:connector-curvature="0" /><path
   style="fill:#a19b5f;fill-opacity:1;stroke:#000000;stroke-width:0.3392278px;stroke-linecap:butt;stroke-linejoin:miter;stroke-opacity:1"
   d="m 75.501558,58.446458 -0.941537,5.01641 2.684235,-3.636706 z"
   id="path973"
   inkscape:connector-curvature="0"
   sodipodi:nodetypes="cccc" /><path
   style="fill:#998348;fill-opacity:1;stroke:#000000;stroke-width:0.3392278px;stroke-linecap:butt;stroke-linejoin:miter;stroke-opacity:1"
   d="m 75.479912,58.186695 -2.045537,3.501116 1.125646,1.775057 z"
   id="path975"
   inkscape:connector-curvature="0" /><path
   style="fill:#a59a5b;fill-opacity:1;stroke:#000000;stroke-width:0.3392278px;stroke-linecap:butt;stroke-linejoin:miter;stroke-opacity:1"
   d="m 75.479912,58.186695 -3.73401,0.730289 -0.995762,1.731765 2.684235,1.039062 z"
   id="path977"
   inkscape:connector-curvature="0" /><path
   style="fill:#b3b175;fill-opacity:1;stroke:#000000;stroke-width:0.3392278px;stroke-linecap:butt;stroke-linejoin:miter;stroke-opacity:1"
   d="m 71.745902,58.916984 -4.54588,4.242824 3.550118,-2.511059 z"
   id="path979"
   inkscape:connector-curvature="0" /><path
   style="fill:#987a31;fill-opacity:1;stroke:#000000;stroke-width:0.3392278px;stroke-linecap:butt;stroke-linejoin:miter;stroke-opacity:1"
   d="m 67.200022,63.159808 1.298822,1.731765 2.277108,-0.590585 -0.02582,-3.652239 z"
   id="path981"
   inkscape:connector-curvature="0"
   sodipodi:nodetypes="ccccc" /><path
   style="fill:#b2a362;fill-opacity:1;stroke:#000000;stroke-width:0.3392278px;stroke-linecap:butt;stroke-linejoin:miter;stroke-opacity:1"
   d="m 64.818843,64.978161 2.381179,-1.818353 1.298822,1.731765 -2.078116,0.865882 z"
   id="path983"
   inkscape:connector-curvature="0" /><path
   style="fill:#3e1b08;fill-opacity:1;stroke:#000000;stroke-width:0.3392278px;stroke-linecap:butt;stroke-linejoin:miter;stroke-opacity:1"
   d="m 64.818843,64.978161 v 2.554355 l 1.601885,-1.775061 z"
   id="path985"
   inkscape:connector-curvature="0" /><path
   style="fill:#5c5223;fill-opacity:1;stroke:#000000;stroke-width:0.3392278px;stroke-linecap:butt;stroke-linejoin:miter;stroke-opacity:1"
   d="m 64.818843,67.532516 1.991532,1.515293 1.688469,-4.156236 -2.078116,0.865882 z"
   id="path987"
   inkscape:connector-curvature="0" /><path
   style="fill:#c7c08a;fill-opacity:1;stroke:#000000;stroke-width:0.3392278px;stroke-linecap:butt;stroke-linejoin:miter;stroke-opacity:1"
   d="m 64.818843,67.532516 1.342118,2.337883 0.649414,-0.82259 z"
   id="path989"
   inkscape:connector-curvature="0" /><path
   style="fill:#ad924f;fill-opacity:1;stroke:#000000;stroke-width:0.3392278px;stroke-linecap:butt;stroke-linejoin:miter;stroke-opacity:1"
   d="m 66.810375,69.047809 3.550117,-0.692706 0.606119,-4.112941 -2.467767,0.649411 z"
   id="path991"
   inkscape:connector-curvature="0" /><path
   style="fill:#bfac7b;fill-opacity:1;stroke:#000000;stroke-width:0.3392278px;stroke-linecap:butt;stroke-linejoin:miter;stroke-opacity:1"
   d="m 70.966611,64.242162 2.467764,-2.554351 -2.770823,1.039058 z"
   id="path993"
   inkscape:connector-curvature="0" /><path
   style="fill:#260905;fill-opacity:1;stroke:#000000;stroke-width:0.3392278px;stroke-linecap:butt;stroke-linejoin:miter;stroke-opacity:1"
   d="m 70.648246,62.589108 2.464687,-0.916603 -2.316872,-0.93957 z"
   id="path995"
   inkscape:connector-curvature="0"
   sodipodi:nodetypes="cccc" /><path
   style="fill:#7a6529;fill-opacity:1;stroke:#000000;stroke-width:0.3392278px;stroke-linecap:butt;stroke-linejoin:miter;stroke-opacity:1"
   d="m 70.966611,64.242162 -0.606119,4.112941 c 0,0 4.242824,1.645176 4.242824,1.645176 l -0.0433,-6.537411 z"
   id="path997"
   inkscape:connector-curvature="0" /><path
   style="fill:#b2974c;fill-opacity:1;stroke:#000000;stroke-width:0.3392278px;stroke-linecap:butt;stroke-linejoin:miter;stroke-opacity:1"
   d="m 70.966611,64.242162 2.467764,-2.554351 1.125646,1.775057 z"
   id="path999"
   inkscape:connector-curvature="0" /><path
   style="fill:#3d1c0a;fill-opacity:1;stroke:#000000;stroke-width:0.3392278px;stroke-linecap:butt;stroke-linejoin:miter;stroke-opacity:1"
   d="m 66.160961,69.870399 3.636708,0.952471 1.68847,-1.298826 -1.125647,-1.168941 -3.550117,0.692706 z"
   id="path1001"
   inkscape:connector-curvature="0" /><path
   style="fill:#4a2513;fill-opacity:1;stroke:#000000;stroke-width:0.3392278px;stroke-linecap:butt;stroke-linejoin:miter;stroke-opacity:1"
   d="m 70.360492,68.355103 c 0,0 1.125647,1.168941 1.125647,1.168941 l 3.117177,0.476235 z"
   id="path1003"
   inkscape:connector-curvature="0" /><path
   style="fill:#a09b58;fill-opacity:1;stroke:#000000;stroke-width:0.3392278px;stroke-linecap:butt;stroke-linejoin:miter;stroke-opacity:1"
   d="m 74.603316,70.000279 0.562823,3.073883 4.156237,1.255529 z"
   id="path1005"
   inkscape:connector-curvature="0" /><path
   style="fill:#6d612e;fill-opacity:1;stroke:#000000;stroke-width:0.3392278px;stroke-linecap:butt;stroke-linejoin:miter;stroke-opacity:1"
   d="m 80.23155,71.125929 c -0.173176,-0.0433 -5.628234,-1.12565 -5.628234,-1.12565 l 4.71906,4.329412 c 0,0 0.909174,-3.290353 0.909174,-3.203762 z"
   id="path1007"
   inkscape:connector-curvature="0" /><path
   style="fill:#87702c;fill-opacity:1;stroke:#000000;stroke-width:0.3392278px;stroke-linecap:butt;stroke-linejoin:miter;stroke-opacity:1"
   d="M 80.23155,71.125929 78.088492,60.627103 74.603316,70.000279 Z"
   id="path1009"
   inkscape:connector-curvature="0"
   sodipodi:nodetypes="cccc" /><path
   style="fill:#564e22;fill-opacity:1;stroke:#000000;stroke-width:0.3392278px;stroke-linecap:butt;stroke-linejoin:miter;stroke-opacity:1"
   d="m 80.23155,71.125929 1.515297,-12.68518 -3.636709,1.731765 z"
   id="path1011"
   inkscape:connector-curvature="0" /><path
   style="fill:#a59d5c;fill-opacity:1;stroke:#000000;stroke-width:0.3392278px;stroke-linecap:butt;stroke-linejoin:miter;stroke-opacity:1"
   d="m 80.23155,71.125929 2.944002,-6.19106 -1.428705,-6.49412 z"
   id="path1013"
   inkscape:connector-curvature="0" /><path
   style="fill:#9d8a47;fill-opacity:1;stroke:#000000;stroke-width:0.3392278px;stroke-linecap:butt;stroke-linejoin:miter;stroke-opacity:1"
   d="m 79.322376,74.329691 c 0,0 7.836233,-3.636705 7.879529,-3.853176 0.0433,-0.216468 -4.026353,-5.541646 -4.026353,-5.541646 l -2.944002,6.19106 z"
   id="path1015"
   inkscape:connector-curvature="0" /><path
   style="fill:#bcac67;fill-opacity:1;stroke:#000000;stroke-width:0.3392278px;stroke-linecap:butt;stroke-linejoin:miter;stroke-opacity:1"
   d="m 75.166139,73.074162 -2.164707,3.98306 2.511059,3.247058 z"
   id="path1017"
   inkscape:connector-curvature="0" /><path
   style="fill:#b09450;fill-opacity:1;stroke:#000000;stroke-width:0.3392278px;stroke-linecap:butt;stroke-linejoin:miter;stroke-opacity:1"
   d="m 75.512491,80.30428 3.809885,-5.974589 -4.156237,-1.255529 z"
   id="path1019"
   inkscape:connector-curvature="0" /><path
   style="fill:#82662f;fill-opacity:1;stroke:#000000;stroke-width:0.3392278px;stroke-linecap:butt;stroke-linejoin:miter;stroke-opacity:1"
   d="m 75.512491,80.30428 4.762355,3.16047 -0.95247,-9.135059 z"
   id="path1021"
   inkscape:connector-curvature="0" /><path
   style="fill:#bea35f;fill-opacity:1;stroke:#000000;stroke-width:0.3392278px;stroke-linecap:butt;stroke-linejoin:miter;stroke-opacity:1"
   d="m 80.274846,83.46475 5.888001,2.07812 -0.476235,-8.528944 -6.364236,-2.684235 z"
   id="path1023"
   inkscape:connector-curvature="0" /><path
   style="fill:#baa561;fill-opacity:1;stroke:#000000;stroke-width:0.3392278px;stroke-linecap:butt;stroke-linejoin:miter;stroke-opacity:1"
   d="m 87.115317,70.563102 -1.428705,6.450824 -6.364236,-2.684235 z"
   id="path1025"
   inkscape:connector-curvature="0" /><path
   style="fill:#603016;fill-opacity:1;stroke:#000000;stroke-width:0.3392278px;stroke-linecap:butt;stroke-linejoin:miter;stroke-opacity:1"
   d="m 75.512491,80.30428 6.450824,10.650356 1.342117,-3.506825 -3.030586,-3.983061 z"
   id="path1027"
   inkscape:connector-curvature="0" /><path
   style="fill:#a1843b;fill-opacity:1;stroke:#000000;stroke-width:0.3392278px;stroke-linecap:butt;stroke-linejoin:miter;stroke-opacity:1"
   d="m 80.274846,83.46475 5.888001,2.07812 -2.857415,1.904941 z"
   id="path1029"
   inkscape:connector-curvature="0" /><path
   style="fill:#b8a966;fill-opacity:1;stroke:#000000;stroke-width:0.3392278px;stroke-linecap:butt;stroke-linejoin:miter;stroke-opacity:1"
   d="m 73.001432,77.057222 3.333649,8.788707 2.034824,-0.51953 -2.857414,-5.022119 z"
   id="path1031"
   inkscape:connector-curvature="0" /><path
   style="fill:#bcb368;fill-opacity:1;stroke:#000000;stroke-width:0.3392278px;stroke-linecap:butt;stroke-linejoin:miter;stroke-opacity:1"
   d="m 78.369905,85.326399 -3.117178,13.63765 c 0,0 -0.303059,-2.987295 -0.303059,-3.33365 0,-0.346351 1.385413,-9.78447 1.385413,-9.78447 z"
   id="path1033"
   inkscape:connector-curvature="0" /><path
   style="fill:#937e36;fill-opacity:1;stroke:#000000;stroke-width:0.3392278px;stroke-linecap:butt;stroke-linejoin:miter;stroke-opacity:1"
   d="m 78.369905,85.326399 1.688469,2.467767 -2.814118,9.091763 -1.991529,2.07812 z"
   id="path1035"
   inkscape:connector-curvature="0" /><path
   style="fill:#5c300e;fill-opacity:1;stroke:#000000;stroke-width:0.3392278px;stroke-linecap:butt;stroke-linejoin:miter;stroke-opacity:1"
   d="m 77.244256,96.885929 -0.08659,4.372711 -1.904941,-2.294591 z"
   id="path1037"
   inkscape:connector-curvature="0" /><path
   style="fill:#d6cda2;fill-opacity:1;stroke:#000000;stroke-width:0.3392278px;stroke-linecap:butt;stroke-linejoin:miter;stroke-opacity:1"
   d="m 75.252727,98.964049 -0.432939,-3.247062 -1.601885,3.117178 z"
   id="path1039"
   inkscape:connector-curvature="0" /><path
   style="fill:#463b15;fill-opacity:1;stroke:#000000;stroke-width:0.3392278px;stroke-linecap:butt;stroke-linejoin:miter;stroke-opacity:1"
   d="m 75.252727,98.964049 -0.04329,5.758121 -1.991532,-5.888005 z"
   id="path1041"
   inkscape:connector-curvature="0" /><path
   style="fill:#907437;fill-opacity:1;stroke:#000000;stroke-width:0.3392278px;stroke-linecap:butt;stroke-linejoin:miter;stroke-opacity:1"
   d="m 75.252727,98.964049 -0.04329,5.758121 1.948233,-3.46353 z"
   id="path1043"
   inkscape:connector-curvature="0" /><path
   style="fill:#95793c;fill-opacity:1;stroke:#000000;stroke-width:0.3392278px;stroke-linecap:butt;stroke-linejoin:miter;stroke-opacity:1"
   d="m 77.980258,102.55746 1.25553,4.32941 1.90494,0.43294 1.039058,-1.16894 z"
   id="path1045"
   inkscape:connector-curvature="0" /><path
   style="fill:#391c0f;fill-opacity:1;stroke:#000000;stroke-width:0.3392278px;stroke-linecap:butt;stroke-linejoin:miter;stroke-opacity:1"
   d="m 77.980258,102.55746 3.117175,-1.68847 1.082353,5.28188 z"
   id="path1047"
   inkscape:connector-curvature="0" /><path
   style="fill:#bea764;fill-opacity:1;stroke:#000000;stroke-width:0.3392278px;stroke-linecap:butt;stroke-linejoin:miter;stroke-opacity:1"
   d="m 77.980258,102.55746 5.325174,-15.109649 2.857415,-1.904941 -5.065414,15.32612 z"
   id="path1049"
   inkscape:connector-curvature="0" /><path
   style="fill:#a7843f;fill-opacity:1;stroke:#000000;stroke-width:0.3392278px;stroke-linecap:butt;stroke-linejoin:miter;stroke-opacity:1"
   d="m 86.162847,85.54287 2.727527,-0.519531 -7.792941,15.845651 z"
   id="path1051"
   inkscape:connector-curvature="0" /><path
   style="fill:#c0ab66;fill-opacity:1;stroke:#000000;stroke-width:0.3392278px;stroke-linecap:butt;stroke-linejoin:miter;stroke-opacity:1"
   d="m 85.686612,77.013926 c 0,0 3.203762,8.009413 3.203762,8.009413 l -2.727527,0.519531 z"
   id="path1053"
   inkscape:connector-curvature="0" /><path
   style="fill:#c5c08c;fill-opacity:1;stroke:#000000;stroke-width:0.3392278px;stroke-linecap:butt;stroke-linejoin:miter;stroke-opacity:1"
   d="M 85.686612,77.013926 100.01696,72.208279 87.115317,70.563102 Z"
   id="path1055"
   inkscape:connector-curvature="0" /><path
   style="fill:#a08032;fill-opacity:1;stroke:#000000;stroke-width:0.3392278px;stroke-linecap:butt;stroke-linejoin:miter;stroke-opacity:1"
   d="M 88.890374,85.023339 102.65791,81.213458 85.686612,77.013926 Z"
   id="path1057"
   inkscape:connector-curvature="0" /><path
   style="fill:#aa9c5c;fill-opacity:1;stroke:#000000;stroke-width:0.3392278px;stroke-linecap:butt;stroke-linejoin:miter;stroke-opacity:1"
   d="m 85.686612,77.013926 14.330348,-4.805647 2.64095,9.005179 z"
   id="path1059"
   inkscape:connector-curvature="0" /><path
   style="fill:#d1b673;fill-opacity:1;stroke:#000000;stroke-width:0.3392278px;stroke-linecap:butt;stroke-linejoin:miter;stroke-opacity:1"
   d="m 88.890374,85.023339 c 0.692707,0.129884 9.697885,5.67153 9.697885,5.67153 l 4.069651,-9.481411 z"
   id="path1061"
   inkscape:connector-curvature="0" /><path
   style="fill:none;stroke:#000000;stroke-width:0.3392278px;stroke-linecap:butt;stroke-linejoin:miter;stroke-opacity:1"
   d="m 88.890374,85.023339 -4.242821,8.788708 14.157178,6.277643 -0.216472,-9.394821 z"
   id="path1063"
   inkscape:connector-curvature="0" /><path
   style="fill:#896b33;fill-opacity:1;stroke:#000000;stroke-width:0.3392278px;stroke-linecap:butt;stroke-linejoin:miter;stroke-opacity:1"
   d="m 84.647553,93.812047 13.940706,-3.117178 -9.697885,-5.67153 z"
   id="path1065"
   inkscape:connector-curvature="0" /><path
   style="fill:#6a3e1c;fill-opacity:1;stroke:#000000;stroke-width:0.3392278px;stroke-linecap:butt;stroke-linejoin:miter;stroke-opacity:1"
   d="m 84.647553,93.812047 c 0,0 13.854118,17.534123 13.854118,17.317643 0,-0.21646 0.30306,-11.04 0.30306,-11.04 z"
   id="path1067"
   inkscape:connector-curvature="0" /><path
   style="fill:#927a3c;fill-opacity:1;stroke:#000000;stroke-width:0.3392278px;stroke-linecap:butt;stroke-linejoin:miter;stroke-opacity:1"
   d="m 87.072021,97.059105 c 0.08659,0.216471 3.290354,11.992475 3.290354,11.992475 l 2.857414,-4.24283 z"
   id="path1069"
   inkscape:connector-curvature="0" /><path
   style="fill:#4f4819;fill-opacity:1;stroke:#000000;stroke-width:0.3392278px;stroke-linecap:butt;stroke-linejoin:miter;stroke-opacity:1"
   d="m 87.072021,97.059105 c 0,0 -2.078116,24.461175 -1.90494,24.461175 0.173176,0 5.195294,-12.4687 5.195294,-12.4687 z"
   id="path1071"
   inkscape:connector-curvature="0" /><path
   style="fill:#614c1a;fill-opacity:1;stroke:#000000;stroke-width:0.3392278px;stroke-linecap:butt;stroke-linejoin:miter;stroke-opacity:1"
   d="m 93.219789,104.80875 -2.944002,18.91953 0.08659,-14.6767 z"
   id="path1073"
   inkscape:connector-curvature="0" /><path
   style="fill:#837033;fill-opacity:1;stroke:#000000;stroke-width:0.3392278px;stroke-linecap:butt;stroke-linejoin:miter;stroke-opacity:1"
   d="m 85.080493,121.43369 c 0.346351,0.17318 5.195294,2.29459 5.195294,2.29459 0,0 0.08659,-14.6767 0.08659,-14.6767 z"
   id="path1075"
   inkscape:connector-curvature="0" /><path
   style="fill:#d0be8c;fill-opacity:1;stroke:#000000;stroke-width:0.3392278px;stroke-linecap:butt;stroke-linejoin:miter;stroke-opacity:1"
   d="m 71.70261,121.69346 c 0.303059,0 13.377883,-0.25977 13.377883,-0.25977 l 5.195294,2.29459 -13.594354,0.51953 -0.822587,1.73177 z"
   id="path1077"
   inkscape:connector-curvature="0" /><path
   style="fill:#564017;fill-opacity:1;stroke:#000000;stroke-width:0.3392278px;stroke-linecap:butt;stroke-linejoin:miter;stroke-opacity:1"
   d="m 71.70261,121.69346 -6.147765,2.59765 10.304001,1.68847 z"
   id="path1079"
   inkscape:connector-curvature="0" /><path
   style="fill:#5b421b;fill-opacity:1;stroke:#000000;stroke-width:0.3392278px;stroke-linecap:butt;stroke-linejoin:miter;stroke-opacity:1"
   d="m 76.681433,124.24781 1.90494,4.84895 -4.459292,0.0433 z"
   id="path1083"
   inkscape:connector-curvature="0" /><path
   style="fill:#c4a258;fill-opacity:1;stroke:#000000;stroke-width:0.3392278px;stroke-linecap:butt;stroke-linejoin:miter;stroke-opacity:1"
   d="m 78.586373,129.09676 c 0.476239,0.0433 10.563768,-1.38542 10.563768,-1.38542 l 6.494116,-3.98306 -18.962824,0.51953 z"
   id="path1085"
   inkscape:connector-curvature="0" /><path
   style="fill:#b08b46;fill-opacity:1;stroke:#000000;stroke-width:0.3392278px;stroke-linecap:butt;stroke-linejoin:miter;stroke-opacity:1"
   d="m 89.150141,127.71134 c 0,0 6.797176,0.47624 6.840471,0.21647 0.04329,-0.25976 0.08659,-4.32941 0.08659,-4.32941 z"
   id="path1087"
   inkscape:connector-curvature="0" /><path
   style="fill:#a38544;fill-opacity:1;stroke:#000000;stroke-width:0.3392278px;stroke-linecap:butt;stroke-linejoin:miter;stroke-opacity:1"
   d="m 96.0772,123.5984 c 0,0 3.247058,0.51953 3.203766,0.21647 -0.0433,-0.30306 1.991524,-13.72423 1.818354,-13.72423 -0.17318,0 -2.770828,1.12564 -2.770828,1.12564 z"
   id="path1089"
   inkscape:connector-curvature="0" /><path
   style="fill:#d0ba89;fill-opacity:1;stroke:#000000;stroke-width:0.3392278px;stroke-linecap:butt;stroke-linejoin:miter;stroke-opacity:1"
   d="m 99.280966,123.77158 2.078114,4.06965 -5.411763,0.0866 0.129883,-4.32941 z"
   id="path1091"
   inkscape:connector-curvature="0" /><path
   style="fill:#7b602a;fill-opacity:1;stroke:#000000;stroke-width:0.3392278px;stroke-linecap:butt;stroke-linejoin:miter;stroke-opacity:1"
   d="m 101.09932,110.22052 1.73176,1.73176 -1.472,15.88895 -2.078114,-4.06965 z"
   id="path1093"
   inkscape:connector-curvature="0" /><path
   style="fill:#c9a75f;fill-opacity:1;stroke:#000000;stroke-width:0.3392278px;stroke-linecap:butt;stroke-linejoin:miter;stroke-opacity:1"
   d="m 101.09932,110.22052 1.90494,-14.546825 -4.416001,-4.978826 0.216472,9.394821 -0.476239,11.12659 z"
   id="path1095"
   inkscape:connector-curvature="0"
   sodipodi:nodetypes="cccccc" /><path
   style="fill:#43451d;fill-opacity:1;stroke:#000000;stroke-width:0.3392278px;stroke-linecap:butt;stroke-linejoin:miter;stroke-opacity:1"
   d="m 101.09932,110.22052 c 0,0 1.73176,1.73176 1.73176,1.73176 l 3.76659,-11.992469 -3.59341,-4.286116 z"
   id="path1097"
   inkscape:connector-curvature="0" /><path
   style="fill:#8e7639;fill-opacity:1;stroke:#000000;stroke-width:0.3392278px;stroke-linecap:butt;stroke-linejoin:miter;stroke-opacity:1"
   d="m 98.588259,90.694869 15.604241,4.798313 -0.55104,7.041118 -7.04379,-2.574489 z"
   id="path1099"
   inkscape:connector-curvature="0" /><path
   style="fill:#c4a35e;fill-opacity:1;stroke:#000000;stroke-width:0.3392278px;stroke-linecap:butt;stroke-linejoin:miter;stroke-opacity:1"
   d="m 113.64146,102.5343 -10.81038,9.41798 3.76659,-11.992469 z"
   id="path1101"
   inkscape:connector-curvature="0" /><path
   style="fill:#3b1b0c;fill-opacity:1;stroke:#000000;stroke-width:0.3392278px;stroke-linecap:butt;stroke-linejoin:miter;stroke-opacity:1"
   d="m 113.64146,102.5343 -5.44921,17.3885 -5.36117,-7.97052 z"
   id="path1103"
   inkscape:connector-curvature="0" /><path
   style="fill:#a5944f;fill-opacity:1;stroke:#000000;stroke-width:0.3392278px;stroke-linecap:butt;stroke-linejoin:miter;stroke-opacity:1"
   d="m 113.64146,102.5343 c 0,0 1.53068,16.34765 1.53068,16.34765 l -6.97989,1.04085 z"
   id="path1105"
   inkscape:connector-curvature="0" /><path
   style="fill:#9e8040;fill-opacity:1;stroke:#000000;stroke-width:0.3392278px;stroke-linecap:butt;stroke-linejoin:miter;stroke-opacity:1"
   d="m 115.17214,118.88195 -0.85718,6.06148 -6.12271,-5.02063 z"
   id="path1107"
   inkscape:connector-curvature="0" /><path
   style="fill:#bca35a;fill-opacity:1;stroke:#000000;stroke-width:0.3392278px;stroke-linecap:butt;stroke-linejoin:miter;stroke-opacity:1"
   d="m 115.17214,118.88195 17.44973,3.30626 -18.30691,2.75522 z"
   id="path1109"
   inkscape:connector-curvature="0" /><path
   style="fill:#75642d;fill-opacity:1;stroke:#000000;stroke-width:0.3392278px;stroke-linecap:butt;stroke-linejoin:miter;stroke-opacity:1"
   d="m 114.31496,124.94343 17.69464,2.08172 0.61227,-4.83694 z"
   id="path1111"
   inkscape:connector-curvature="0" /><path
   style="fill:#b3a066;fill-opacity:1;stroke:#000000;stroke-width:0.3392278px;stroke-linecap:butt;stroke-linejoin:miter;stroke-opacity:1"
   d="m 132.62187,122.18821 16.34765,3.30627 -16.95992,1.53067 z"
   id="path1113"
   inkscape:connector-curvature="0" /><path
   style="fill:#9d8041;fill-opacity:1;stroke:#000000;stroke-width:0.3392278px;stroke-linecap:butt;stroke-linejoin:miter;stroke-opacity:1"
   d="M 102.65791,81.213458 114.1925,95.493182 98.588259,90.694869 Z"
   id="path1115"
   inkscape:connector-curvature="0" /><path
   style="fill:#cfc9a5;fill-opacity:1;stroke:#000000;stroke-width:0.3392278px;stroke-linecap:butt;stroke-linejoin:miter;stroke-opacity:1"
   d="m 113.51901,85.45193 -10.8611,-4.238472 6.51397,-2.496513 z"
   id="path1117"
   inkscape:connector-curvature="0" /><path
   style="fill:#9d8947;fill-opacity:1;stroke:#000000;stroke-width:0.3392278px;stroke-linecap:butt;stroke-linejoin:miter;stroke-opacity:1"
   d="M 114.1925,95.493182 113.51901,85.45193 102.65791,81.213458 Z"
   id="path1119"
   inkscape:connector-curvature="0" /><path
   style="fill:#d7c891;fill-opacity:1;stroke:#000000;stroke-width:0.3392278px;stroke-linecap:butt;stroke-linejoin:miter;stroke-opacity:1"
   d="m 100.01696,72.208279 9.15492,6.508666 -6.51397,2.496513 z"
   id="path1121"
   inkscape:connector-curvature="0" /><path
   style="fill:#bfb785;fill-opacity:1;stroke:#000000;stroke-width:0.3392278px;stroke-linecap:butt;stroke-linejoin:miter;stroke-opacity:1"
   d="m 85.76708,49.221048 -10.287168,8.965647 8.358695,-8.9733 z"
   id="path959"
   inkscape:connector-curvature="0"
   sodipodi:nodetypes="cccc" /><path
   style="fill:#525322;fill-opacity:1;stroke:#000000;stroke-width:0.3392278px;stroke-linecap:butt;stroke-linejoin:miter;stroke-opacity:1"
   d="m 74.560021,63.462868 2.684235,-3.636706 0.865882,0.346352 -3.506822,9.827765 z"
   id="path1123"
   inkscape:connector-curvature="0" /><path
   style="fill:#b38f44;fill-opacity:1;stroke:#000000;stroke-width:0.3392278px;stroke-linecap:butt;stroke-linejoin:miter;stroke-opacity:1"
   d="m 84.647553,93.812047 13.940706,-3.117178 0.216472,9.394821 z"
   id="path1125"
   inkscape:connector-curvature="0" /></svg>